<svg width="954" height="644" viewBox="0 0 954 644" fill="none" xmlns="http://www.w3.org/2000/svg">
<path d="M628 464.809V397.375L796.825 131H854.877V224.34H820.52L714.091 393.024V396.188H954V464.809H628ZM822.099 536V444.242L823.679 414.381V131H903.846V536H822.099Z" fill="#C86000"/>
<path fill-rule="evenodd" clip-rule="evenodd" d="M552.919 550.393C521.105 573.747 484.266 585.594 439.369 585.399C346.182 584.995 278.687 488.87 300.33 393.787C310.29 350.03 341.157 278.71 386.022 219.16C395.971 205.955 404.033 188.227 412.341 168.948C413.145 167.082 413.951 165.2 414.763 163.309C422.111 146.169 429.814 128.203 439.114 113.473C465.332 71.9432 498.749 44.1934 535.429 39.8743C576.517 35.0362 606.661 54.9038 627.152 86.8666C647.306 118.304 658.663 161.994 663.796 207.79C668.951 253.787 667.937 302.922 662.61 346.012C657.321 388.798 647.641 426.793 634.745 449.843C610.528 493.13 584.497 527.212 552.919 550.393ZM439.429 575.451C525.341 575.824 578.35 530.342 626.104 444.984C673.858 359.626 682.44 32.5778 536.568 49.7543C504.156 53.5708 472.962 78.4296 447.484 118.787C438.636 132.803 431.256 150.006 423.839 167.294C414.823 188.31 405.753 209.452 393.925 225.151C349.842 283.663 319.617 353.706 309.994 395.986C289.547 485.813 353.518 575.079 439.429 575.451Z" fill="#1C2F17"/>
<path d="M644.289 464.261C593.52 555.157 537.192 603.606 445.948 603.26C354.703 602.914 272.5 479.5 308.583 412.287C318.829 367.272 350.971 292.691 397.826 230.376C420.74 199.902 433.933 150.185 454.773 117.115C481.856 74.1377 511.574 45.082 546 41C708 33.5 695.058 373.365 644.289 464.261Z" fill="#1C2F17"/>
<g filter="url(#filter0_i_1_25)">
<path d="M628.897 447.63C580.795 533.394 527.356 579.069 440.684 578.62C354.013 578.172 289.4 488.382 309.95 398.102C319.622 355.608 350.053 285.224 394.476 226.442C416.201 197.696 428.666 150.766 448.417 119.566C474.085 79.0192 505.533 54.0569 538.228 50.2484C685.375 33.1075 676.999 361.865 628.897 447.63Z" fill="url(#paint0_radial_1_25)"/>
</g>
<path fill-rule="evenodd" clip-rule="evenodd" d="M551.608 549.07C520.23 572.209 483.908 583.967 439.658 583.816C347.809 583.503 281.374 488.449 302.796 394.341C312.653 351.034 343.143 280.433 387.419 221.465C397.237 208.389 405.2 190.84 413.406 171.755C414.2 169.908 414.997 168.045 415.799 166.172C423.058 149.205 430.667 131.421 439.846 116.836C465.726 75.7171 498.69 48.227 534.846 43.9189C575.348 39.0932 605.04 58.7244 625.207 90.3331C645.042 121.422 656.195 164.644 661.212 209.955C666.25 255.465 665.204 304.086 659.914 346.729C654.661 389.072 645.084 426.677 632.353 449.498C608.443 492.354 582.754 526.103 551.608 549.07ZM439.726 573.972C524.402 574.261 576.693 529.206 623.84 444.698C670.987 360.19 679.751 36.5616 535.959 53.6943C504.01 57.5011 473.241 82.1284 448.092 122.086C439.357 135.964 432.067 152.993 424.741 170.108C415.835 190.911 406.876 211.84 395.203 227.386C351.698 285.326 321.843 354.663 312.318 396.509C292.081 485.413 355.049 573.684 439.726 573.972Z" fill="#2B581B"/>
<path d="M544.12 381.373C530.748 440.121 478.246 470.678 432.502 460.266C408.312 454.759 390.752 438.335 380.444 413.649C371.259 391.654 369.22 370.677 375.521 342.996C382.197 313.67 403.478 297.853 422.803 282.013C442.192 266.12 462.598 250.932 485.507 256.146C531.251 266.559 557.493 322.625 544.12 381.373Z" fill="url(#paint1_radial_1_25)"/>
<path d="M0 464.809V397.375L168.825 131H226.877V224.34H192.52L86.0909 393.024V396.188H326V464.809H0ZM194.099 536V444.242L195.679 414.381V131H275.846V536H194.099Z" fill="#C86000"/>
<defs>
<filter id="filter0_i_1_25" x="306.112" y="49.6021" width="354.071" height="529.022" filterUnits="userSpaceOnUse" color-interpolation-filters="sRGB">
<feFlood flood-opacity="0" result="BackgroundImageFix"/>
<feBlend mode="normal" in="SourceGraphic" in2="BackgroundImageFix" result="shape"/>
<feColorMatrix in="SourceAlpha" type="matrix" values="0 0 0 0 0 0 0 0 0 0 0 0 0 0 0 0 0 0 127 0" result="hardAlpha"/>
<feOffset/>
<feGaussianBlur stdDeviation="35"/>
<feComposite in2="hardAlpha" operator="arithmetic" k2="-1" k3="1"/>
<feColorMatrix type="matrix" values="0 0 0 0 0.150268 0 0 0 0 0.354167 0 0 0 0 0.0796875 0 0 0 1 0"/>
<feBlend mode="normal" in2="shape" result="effect1_innerShadow_1_25"/>
</filter>
<radialGradient id="paint0_radial_1_25" cx="0" cy="0" r="1" gradientUnits="userSpaceOnUse" gradientTransform="translate(488.206 325.978) rotate(112.402) scale(345.037 206.991)">
<stop offset="0.194919" stop-color="#DFDD3C"/>
<stop offset="0.4802" stop-color="#BFD242"/>
<stop offset="1" stop-color="#70A45E"/>
</radialGradient>
<radialGradient id="paint1_radial_1_25" cx="0" cy="0" r="1" gradientUnits="userSpaceOnUse" gradientTransform="translate(436.871 279.21) rotate(87.7274) scale(232.052 188.317)">
<stop stop-color="#D68755"/>
<stop offset="1" stop-color="#24180F"/>
</radialGradient>
</defs>
</svg>
